<svg width="914" height="400" fill="none" xmlns="http://www.w3.org/2000/svg"><path d="M436.375 230.88a1.78 1.78 0 0 1-.056-.429 8.083 8.083 0 0 1 .112-2.184 12.17 12.17 0 0 1 .56-2.128c.249-.647.548-1.282.896-1.904a5.994 5.994 0 0 1 1.344-1.606 3.612 3.612 0 0 1 1.867-.821c.697-.1 1.375.031 2.034.392.212.124.43.274.654.448.236.162.423.348.56.56.137.224.199.479.186.765 0 .274-.08.517-.242.728a1.399 1.399 0 0 1-.654.448 1.296 1.296 0 0 1-.784.019 1.176 1.176 0 0 1-.597-.392 1.721 1.721 0 0 0-.523-.467.68.68 0 0 0-.429-.112.976.976 0 0 0-.411.094 1.465 1.465 0 0 0-.373.224 6.801 6.801 0 0 0-.317.261 5.838 5.838 0 0 0-.672.803c-.187.273-.361.56-.523.858a12.382 12.382 0 0 0-.859 2.016 5.985 5.985 0 0 0-.28 2.128c0 .1.007.206.019.318.025.112.056.217.093.317a.9.9 0 0 0 .15.261.418.418 0 0 0 .28.094.473.473 0 0 0 .373-.094c.125-.087.23-.161.317-.224.125-.112.237-.23.336-.354.112-.125.218-.255.318-.392.211-.299.404-.61.578-.934.175-.336.343-.672.504-1.008l.467-1.101c.062-.149.106-.305.131-.467.037-.161.081-.323.13-.485.063-.224.144-.429.243-.616.1-.187.255-.336.467-.448.249-.137.504-.187.765-.149.261.025.498.124.709.298.2.175.336.392.411.654a1.17 1.17 0 0 1-.019.746c-.087.262-.18.523-.28.784-.087.249-.168.504-.242.766-.038.137-.106.373-.206.709a7.058 7.058 0 0 0-.186 1.027c-.038.336-.019.634.056.896.074.249.261.361.56.336h.018c.088.025.193-.007.318-.094.137-.087.236-.161.298-.224.237-.211.467-.454.691-.728.212-.249.405-.504.579-.765.186-.261.367-.529.541-.803.125-.186.243-.373.355-.56.124-.199.236-.398.336-.597a.395.395 0 0 1 .242-.187c.112-.025.206.013.28.112a.212.212 0 0 1 .056.224c-.012.075-.031.15-.056.224a17.173 17.173 0 0 1-.653 1.755c-.249.572-.541 1.12-.877 1.643-.174.273-.38.535-.616.784a2.516 2.516 0 0 1-.784.616 2.233 2.233 0 0 1-.654.205 2.32 2.32 0 0 1-.653.019 1.957 1.957 0 0 1-.971-.355 2.387 2.387 0 0 1-.653-.709 3.626 3.626 0 0 1-.411-.915 4.741 4.741 0 0 1-.149-1.008c-.112.274-.249.56-.411.859a5.456 5.456 0 0 1-.56.84 3.23 3.23 0 0 1-.69.672c-.262.199-.56.317-.896.354a1.678 1.678 0 0 1-.84-.093 1.855 1.855 0 0 1-.635-.448 2.385 2.385 0 0 1-.429-.653 3.747 3.747 0 0 1-.243-.803Zm10.529-.168c-.162-.647-.274-1.3-.336-1.96a18.331 18.331 0 0 1-.038-2.016 27.33 27.33 0 0 1 .15-2.016c.087-.672.186-1.338.298-1.997.125-.747.274-1.481.448-2.203.175-.734.38-1.456.616-2.165a32.87 32.87 0 0 1 .747-2.016 8.664 8.664 0 0 1 1.083-1.867c.162-.224.354-.454.578-.691.237-.249.492-.46.766-.634a2.55 2.55 0 0 1 .858-.355c.299-.075.598-.05.896.075.324.137.523.367.598.69.087.311.112.629.074.952a6.644 6.644 0 0 1-.186.971 41.84 41.84 0 0 1-.28.952 76.45 76.45 0 0 1-1.456 4.088 69.94 69.94 0 0 1-1.699 3.995l-.747 1.586a.927.927 0 0 0-.112.355c0 .112-.006.23-.018.355l-.075 1.045c-.025.361-.043.722-.056 1.083-.012.361-.006.721.019 1.082a7.8 7.8 0 0 1 .056.523c.025.174.068.348.13.523 0 .012.019.062.056.149.05.087.063.131.038.131.236.025.46-.013.672-.112.224-.112.423-.243.597-.392.261-.212.498-.442.709-.691.224-.249.43-.516.616-.803.175-.249.336-.504.486-.765.162-.274.317-.548.466-.821.025-.063.056-.125.094-.187a.39.39 0 0 1 .149-.168.44.44 0 0 1 .355-.037.449.449 0 0 1 .28.242c.05.1.056.206.018.318a4.468 4.468 0 0 0-.093.317 7.918 7.918 0 0 1-.336.933c-.137.349-.286.691-.448 1.027a8.192 8.192 0 0 1-1.139 1.699 4.692 4.692 0 0 1-.69.634 3.27 3.27 0 0 1-.822.448 2.514 2.514 0 0 1-.914.206 1.684 1.684 0 0 1-.915-.206 2.427 2.427 0 0 1-.691-.597 3.499 3.499 0 0 1-.504-.803 6.582 6.582 0 0 1-.298-.877Zm3.621-11.443c-.087.324-.174.654-.261.99-.075.336-.143.672-.206 1.008.361-.598.697-1.201 1.008-1.811.312-.61.598-1.238.859-1.885.125-.311.243-.616.355-.915a6.438 6.438 0 0 0 .448-1.979 1.11 1.11 0 0 0-.019-.186.764.764 0 0 0-.037-.243c-.013-.075-.038-.124-.075-.149-.025-.038-.062-.038-.112 0a1.23 1.23 0 0 0-.243.317 6.136 6.136 0 0 0-.261.504c-.087.187-.174.386-.261.597a45.05 45.05 0 0 0-.747 2.147 30.32 30.32 0 0 0-.448 1.605Zm1.502 11.835c-.1-.672-.1-1.344 0-2.016.087-.684.205-1.35.355-1.997a32.34 32.34 0 0 1 .504-1.979 49.7 49.7 0 0 1 .858-2.539c.087-.211.224-.385.411-.522.211-.175.448-.268.709-.28.262-.025.51.031.747.168.224.137.392.323.504.56.124.236.168.485.131.746a1.785 1.785 0 0 1-.15.504 7.71 7.71 0 0 0-.205.448 73.664 73.664 0 0 0-.859 2.091c-.261.697-.498 1.4-.709 2.109-.1.349-.193.703-.28 1.064a6.14 6.14 0 0 0-.168 1.064c0 .05-.006.131-.019.243a1.573 1.573 0 0 0 0 .336c.013.112.031.212.056.299.038.074.1.105.187.093a.524.524 0 0 0 .355-.112l.354-.224c.137-.1.268-.199.392-.299.125-.112.249-.23.374-.354.286-.262.547-.535.784-.822l.746-.858.616-.784c.062-.075.118-.15.168-.224.05-.075.106-.143.168-.206.1-.099.212-.112.336-.037.137.075.187.18.15.317-.025.1-.063.193-.112.28a4.41 4.41 0 0 0-.131.243 19.31 19.31 0 0 1-1.045 1.829c-.187.311-.386.616-.598.915-.211.286-.442.56-.69.821a5.035 5.035 0 0 1-.71.654 1.968 1.968 0 0 1-.877.41c-.249.063-.51.069-.784.019a1.505 1.505 0 0 1-.728-.299 1.8 1.8 0 0 1-.579-.746 3.726 3.726 0 0 1-.261-.915Zm5.003-11.76a1.57 1.57 0 0 1-.635-.131 1.702 1.702 0 0 1-.523-.354 1.702 1.702 0 0 1-.354-.523 1.553 1.553 0 0 1-.131-.635c0-.224.043-.435.131-.634a1.69 1.69 0 0 1 .877-.878c.199-.087.411-.13.635-.13.224 0 .435.043.634.13a1.693 1.693 0 0 1 .878.878c.087.199.13.41.13.634 0 .224-.043.436-.13.635a1.69 1.69 0 0 1-.878.877c-.199.087-.41.131-.634.131Zm-.727 16.483c.311-.324.653-.61 1.027-.859a14.94 14.94 0 0 1 1.101-.691c.311-.174.616-.348.915-.522.311-.162.628-.33.952-.504l.597-.318.075-.037c.025 0 .043-.012.056-.037.062-.175.124-.374.186-.598.137-.435.268-.871.392-1.306l.374-1.307a7.35 7.35 0 0 1-.467.672 4.83 4.83 0 0 1-.541.597 3.308 3.308 0 0 1-.654.448 2.116 2.116 0 0 1-1.549.15 1.689 1.689 0 0 1-.672-.392 2.233 2.233 0 0 1-.541-.859 4.462 4.462 0 0 1-.187-.989 6.72 6.72 0 0 1 .149-2.11c.175-.709.411-1.381.71-2.016a8.374 8.374 0 0 1 1.101-1.792 4.403 4.403 0 0 1 1.643-1.306c.659-.299 1.319-.38 1.978-.243a4.094 4.094 0 0 1 1.83.84c.186.137.354.292.504.467a1.23 1.23 0 0 1 .186 1.381 1.244 1.244 0 0 1-.522.579 1.37 1.37 0 0 1-.766.186 1.311 1.311 0 0 1-.728-.298 9.982 9.982 0 0 1-.504-.504 1.103 1.103 0 0 0-.616-.336 1.07 1.07 0 0 0-.485.037c-.149.05-.292.124-.429.224a2.924 2.924 0 0 0-.392.299 4.094 4.094 0 0 0-.336.336 4.888 4.888 0 0 0-.654.858c-.186.299-.348.61-.485.934a7.559 7.559 0 0 0-.411 1.045 6.19 6.19 0 0 0-.205 1.064c-.012.112-.025.249-.037.411 0 .149.012.292.037.429.037.137.093.255.168.355a.447.447 0 0 0 .336.168c.286 0 .541-.075.765-.224.224-.162.43-.336.616-.523a6.89 6.89 0 0 0 .672-.821c.212-.299.405-.61.579-.934a9.14 9.14 0 0 0 .317-.616c.112-.211.218-.423.318-.634.112-.237.236-.448.373-.635s.349-.317.635-.392c.274-.062.541-.037.802.075.262.099.461.267.598.504.137.199.205.404.205.616 0 .211-.031.423-.093.634-.15.635-.311 1.257-.486 1.867a136.32 136.32 0 0 1-.541 1.811c.436-.287.865-.598 1.288-.934a9.146 9.146 0 0 0 1.195-1.101c.099-.1.193-.199.28-.299.087-.112.174-.217.261-.317a.926.926 0 0 0 .168-.243c.062-.112.143-.174.243-.186.099-.025.174.006.224.093.062.075.068.156.018.243-.062.112-.13.23-.205.354a5.042 5.042 0 0 1-.205.336c-.311.473-.66.915-1.046 1.326-.373.398-.777.777-1.213 1.138-.211.187-.423.367-.635.542-.211.161-.429.329-.653.504l-.187.112a.404.404 0 0 0-.13.168 1.17 1.17 0 0 1-.094.298l-.28.747a32.054 32.054 0 0 1-.858 2.035 19.588 19.588 0 0 1-1.008 1.96c-.162.261-.336.522-.523.784a5.06 5.06 0 0 1-.597.765 5.77 5.77 0 0 1-.691.653 2.997 2.997 0 0 1-.821.467c-.324.124-.666.18-1.027.168-.348 0-.678-.068-.989-.205a2.447 2.447 0 0 1-.859-.56 2.046 2.046 0 0 1-.541-.896 2.222 2.222 0 0 1-.094-.859c.025-.286.088-.566.187-.84.087-.261.212-.516.373-.765a4.8 4.8 0 0 1 .523-.672Zm.765 2.296a.489.489 0 0 0 .075.336.504.504 0 0 0 .261.186c.1.038.212.05.336.038a.774.774 0 0 0 .336-.112 1.92 1.92 0 0 0 .392-.336 3.23 3.23 0 0 0 .336-.392c.324-.448.598-.921.822-1.419.236-.498.46-1.002.672-1.512-.386.249-.766.498-1.139.747-.373.261-.728.541-1.064.84a6.166 6.166 0 0 0-.653.728 1.777 1.777 0 0 0-.374.896Zm12.674-15.288a5.332 5.332 0 0 1 1.213-.84 2.455 2.455 0 0 1 1.437-.262c.112.025.218.056.318.094.112.037.217.093.317.168l.112.112c.05.037.087.081.112.13.037.05.056.081.056.094.012.012.05.012.112 0l.187-.038a2.65 2.65 0 0 1 .765 0c.261.038.504.131.728.28.236.162.417.361.541.598.125.236.212.491.262.765.062.274.093.554.093.84 0 .274-.013.535-.037.784a9.725 9.725 0 0 1-.336 1.68 12.337 12.337 0 0 1-.598 1.605 3.106 3.106 0 0 0 1.326-.485c.41-.274.784-.572 1.12-.896a4.2 4.2 0 0 0 .205-.224.507.507 0 0 1 .243-.168.274.274 0 0 1 .242.075.213.213 0 0 1 .056.224.605.605 0 0 1-.168.317 9.226 9.226 0 0 0-.224.299 5.178 5.178 0 0 1-.466.541 6.073 6.073 0 0 1-1.027.915 3.266 3.266 0 0 1-1.605.616 1.573 1.573 0 0 1-.336 0 6.476 6.476 0 0 1-.187.28c-.05.087-.106.18-.168.28-.137.199-.28.392-.429.578a4.763 4.763 0 0 1-.467.542c-.423.435-.909.79-1.456 1.064a3.507 3.507 0 0 1-1.755.41c-.722-.025-1.331-.261-1.829-.709-.485-.436-.809-1.002-.971-1.699a5.656 5.656 0 0 1-.074-2.146c.099-.735.261-1.438.485-2.11.236-.684.529-1.344.877-1.978a7.546 7.546 0 0 1 1.326-1.736Zm1.026 2.482a7.638 7.638 0 0 0-.877 1.288 10.76 10.76 0 0 0-.616 1.4 24.55 24.55 0 0 0-.224.71 6.562 6.562 0 0 0-.149.746 4.907 4.907 0 0 0-.019.747c.012.249.062.485.149.709.075.212.187.38.336.504.162.112.336.187.523.224.199.038.404.05.616.038.211-.025.411-.063.597-.112a3.628 3.628 0 0 0 1.27-.654 5.754 5.754 0 0 0 1.008-1.045 3.67 3.67 0 0 1-1.214-.728 4.704 4.704 0 0 1-.877-1.101 4.496 4.496 0 0 1-.504-1.307 4.2 4.2 0 0 1-.019-1.419Zm3.36-1.68a.816.816 0 0 0-.616.355 2.117 2.117 0 0 0-.317.653 4.815 4.815 0 0 0-.224 1.68c.025.423.124.859.299 1.307.186.448.472.79.858 1.027a8.546 8.546 0 0 0 .803-2.782c.012-.137.019-.336.019-.597a3.19 3.19 0 0 0-.056-.765 1.48 1.48 0 0 0-.243-.654c-.112-.174-.286-.249-.523-.224Z" fill="#333"/><path d="M407.408 177.043c-1.459.794-3.083 1.191-4.873 1.191-2.071 0-3.747-.644-5.03-1.933-1.282-1.289-1.923-2.995-1.923-5.117 0-2.168.7-3.946 2.099-5.332 1.406-1.394 3.19-2.09 5.352-2.09 1.556 0 2.864.228 3.926.683v2.393c-1.075-.716-2.354-1.074-3.838-1.074-1.491 0-2.715.491-3.672 1.474-.951.983-1.426 2.256-1.426 3.819 0 1.608.41 2.874 1.231 3.798.82.918 1.933 1.377 3.339 1.377.964 0 1.797-.185 2.5-.556v-3.33h-2.949v-1.953h5.264v6.65Zm3.506-11.143c-.371 0-.69-.12-.957-.361a1.198 1.198 0 0 1-.391-.918c0-.371.131-.68.391-.928.267-.247.586-.371.957-.371.384 0 .71.124.977.371.267.248.4.557.4.928 0 .352-.133.654-.4.908a1.383 1.383 0 0 1-.977.371Zm1.123 12.1h-2.266v-10h2.266v10Zm7.842-.107c-.442.221-1.025.332-1.748.332-1.94 0-2.91-.931-2.91-2.793v-5.655h-1.67V168h1.67v-2.314l2.266-.645V168h2.392v1.777h-2.392v5c0 .593.107 1.016.322 1.27.215.254.573.381 1.074.381.384 0 .716-.111.996-.332v1.797Zm13.057.107h-2.334v-6.074h-6.591V178h-2.325v-14.004h2.325v5.889h6.591v-5.889h2.334V178Zm11.524 0h-2.265v-1.582h-.04c-.657 1.211-1.679 1.816-3.066 1.816-2.363 0-3.545-1.419-3.545-4.257V168h2.266v5.742c0 1.797.693 2.696 2.08 2.696.67 0 1.221-.248 1.65-.743.436-.494.655-1.142.655-1.943V168h2.265v10Zm4.864-1.445h-.039V178h-2.266v-14.805h2.266v6.563h.039c.775-1.328 1.907-1.992 3.398-1.992 1.263 0 2.25.449 2.959 1.347.716.892 1.074 2.09 1.074 3.594 0 1.673-.4 3.014-1.201 4.023-.8 1.003-1.894 1.504-3.281 1.504-1.302 0-2.285-.56-2.949-1.679Zm-.059-3.975v1.24c0 .729.231 1.348.694 1.856.468.508 1.061.762 1.777.762.84 0 1.497-.326 1.973-.977.481-.658.722-1.572.722-2.744 0-.983-.224-1.752-.674-2.305-.442-.56-1.045-.84-1.806-.84-.808 0-1.459.287-1.953.86-.489.573-.733 1.289-.733 2.148Zm26.271 5.42h-2.549l-1.26-3.564h-5.508L465.008 178h-2.539l5.244-14.004h2.617L475.536 178Zm-4.424-5.459-1.944-5.586a6.696 6.696 0 0 1-.185-.879h-.039a5.716 5.716 0 0 1-.196.879l-1.923 5.586h4.287Zm12.861 5c-.8.462-1.748.693-2.841.693-1.485 0-2.683-.462-3.594-1.386-.912-.931-1.367-2.136-1.367-3.614 0-1.647.488-2.968 1.465-3.964.983-1.003 2.294-1.504 3.935-1.504.912 0 1.716.159 2.412.478v2.11c-.696-.521-1.439-.782-2.226-.782-.957 0-1.742.326-2.354.977-.612.644-.918 1.491-.918 2.539 0 1.035.287 1.852.86 2.451.579.599 1.354.899 2.324.899.814 0 1.582-.29 2.304-.87v1.973Zm7.13.352c-.443.221-1.026.332-1.748.332-1.94 0-2.91-.931-2.91-2.793v-5.655h-1.67V168h1.67v-2.314l2.265-.645V168h2.393v1.777h-2.393v5c0 .593.108 1.016.322 1.27.215.254.573.381 1.075.381.384 0 .716-.111.996-.332v1.797Zm2.695-11.993c-.371 0-.69-.12-.957-.361a1.197 1.197 0 0 1-.39-.918c0-.371.13-.68.39-.928.267-.247.586-.371.957-.371.385 0 .71.124.977.371.267.248.4.557.4.928 0 .352-.133.654-.4.908a1.381 1.381 0 0 1-.977.371Zm1.123 12.1h-2.265v-10h2.265v10Zm7.003.234c-1.543 0-2.777-.465-3.701-1.396-.918-.938-1.377-2.178-1.377-3.721 0-1.679.478-2.991 1.435-3.935.964-.944 2.259-1.416 3.887-1.416 1.562 0 2.78.459 3.652 1.377.873.918 1.309 2.19 1.309 3.818 0 1.595-.472 2.874-1.416 3.838-.938.957-2.201 1.435-3.789 1.435Zm.107-8.662c-.885 0-1.585.31-2.099.928-.515.618-.772 1.471-.772 2.559 0 1.048.261 1.875.781 2.48.521.599 1.218.899 2.09.899.892 0 1.576-.297 2.051-.889.482-.593.723-1.436.723-2.529 0-1.101-.241-1.95-.723-2.549-.475-.599-1.159-.899-2.051-.899ZM517.95 178h-2.266v-5.635c0-1.868-.661-2.803-1.982-2.803-.691 0-1.26.261-1.709.782-.45.514-.674 1.165-.674 1.953V178h-2.276v-10h2.276v1.66h.039c.748-1.263 1.829-1.894 3.242-1.894 1.087 0 1.917.354 2.49 1.064.573.703.86 1.722.86 3.057V178Z" fill="silver"/></svg>